<mxfile host="Electron" agent="Mozilla/5.0 (Macintosh; Intel Mac OS X 10_15_7) AppleWebKit/537.36 (KHTML, like Gecko) draw.io/26.1.1 Chrome/132.0.6834.210 Electron/34.3.3 Safari/537.36" version="26.1.1">
  <diagram name="Page-1" id="Xchld1Nz4GsxReiWtjaL">
    <mxGraphModel dx="794" dy="878" grid="1" gridSize="10" guides="1" tooltips="1" connect="1" arrows="1" fold="1" page="1" pageScale="1" pageWidth="827" pageHeight="1169" math="0" shadow="0">
      <root>
        <mxCell id="0" />
        <mxCell id="1" parent="0" />
        <mxCell id="uTukEFcZMju4Uc6lgoSs-1" value="API Gateway" style="rounded=0;whiteSpace=wrap;html=1;fillColor=#e1d5e7;strokeColor=none;" vertex="1" parent="1">
          <mxGeometry x="110" y="168" width="370" height="40" as="geometry" />
        </mxCell>
        <mxCell id="uTukEFcZMju4Uc6lgoSs-2" value="신규 MSA" style="ellipse;whiteSpace=wrap;html=1;fillColor=#fff2cc;strokeColor=none;" vertex="1" parent="1">
          <mxGeometry x="360" y="250" width="120" height="80" as="geometry" />
        </mxCell>
        <mxCell id="uTukEFcZMju4Uc6lgoSs-13" style="edgeStyle=orthogonalEdgeStyle;rounded=0;orthogonalLoop=1;jettySize=auto;html=1;entryX=0.25;entryY=1;entryDx=0;entryDy=0;startArrow=block;startFill=1;endArrow=none;" edge="1" parent="1" source="uTukEFcZMju4Uc6lgoSs-3" target="uTukEFcZMju4Uc6lgoSs-1">
          <mxGeometry relative="1" as="geometry" />
        </mxCell>
        <mxCell id="uTukEFcZMju4Uc6lgoSs-3" value="빅볼 오브 머드" style="ellipse;whiteSpace=wrap;html=1;fillColor=#ffe6cc;strokeColor=none;" vertex="1" parent="1">
          <mxGeometry x="112" y="250" width="180" height="110" as="geometry" />
        </mxCell>
        <mxCell id="uTukEFcZMju4Uc6lgoSs-4" value="메시지 버스" style="rounded=0;whiteSpace=wrap;html=1;fillColor=#e1d5e7;strokeColor=none;" vertex="1" parent="1">
          <mxGeometry x="319" y="430" width="161" height="40" as="geometry" />
        </mxCell>
        <mxCell id="uTukEFcZMju4Uc6lgoSs-20" style="edgeStyle=orthogonalEdgeStyle;rounded=0;orthogonalLoop=1;jettySize=auto;html=1;entryX=0.25;entryY=1;entryDx=0;entryDy=0;" edge="1" parent="1" source="uTukEFcZMju4Uc6lgoSs-5" target="uTukEFcZMju4Uc6lgoSs-4">
          <mxGeometry relative="1" as="geometry" />
        </mxCell>
        <mxCell id="uTukEFcZMju4Uc6lgoSs-5" value="" style="shape=cylinder3;whiteSpace=wrap;html=1;boundedLbl=1;backgroundOutline=1;size=15;fillColor=#f8cecc;strokeColor=#b85450;" vertex="1" parent="1">
          <mxGeometry x="180" y="470" width="90" height="70" as="geometry" />
        </mxCell>
        <mxCell id="uTukEFcZMju4Uc6lgoSs-8" value="" style="sketch=0;outlineConnect=0;fontColor=#232F3E;gradientColor=none;fillColor=#232F3D;strokeColor=none;dashed=0;verticalLabelPosition=bottom;verticalAlign=top;align=center;html=1;fontSize=12;fontStyle=0;aspect=fixed;pointerEvents=1;shape=mxgraph.aws4.user;" vertex="1" parent="1">
          <mxGeometry x="390" y="100" width="30" height="30" as="geometry" />
        </mxCell>
        <mxCell id="uTukEFcZMju4Uc6lgoSs-9" value="" style="sketch=0;outlineConnect=0;fontColor=#232F3E;gradientColor=none;fillColor=#232F3D;strokeColor=none;dashed=0;verticalLabelPosition=bottom;verticalAlign=top;align=center;html=1;fontSize=12;fontStyle=0;aspect=fixed;pointerEvents=1;shape=mxgraph.aws4.user;" vertex="1" parent="1">
          <mxGeometry x="180" y="100" width="30" height="30" as="geometry" />
        </mxCell>
        <mxCell id="uTukEFcZMju4Uc6lgoSs-10" style="edgeStyle=orthogonalEdgeStyle;rounded=0;orthogonalLoop=1;jettySize=auto;html=1;entryX=0.23;entryY=-0.025;entryDx=0;entryDy=0;entryPerimeter=0;endArrow=block;endFill=1;" edge="1" parent="1" source="uTukEFcZMju4Uc6lgoSs-9" target="uTukEFcZMju4Uc6lgoSs-1">
          <mxGeometry relative="1" as="geometry" />
        </mxCell>
        <mxCell id="uTukEFcZMju4Uc6lgoSs-11" style="edgeStyle=orthogonalEdgeStyle;rounded=0;orthogonalLoop=1;jettySize=auto;html=1;entryX=0.797;entryY=0.025;entryDx=0;entryDy=0;entryPerimeter=0;endArrow=block;endFill=1;" edge="1" parent="1" source="uTukEFcZMju4Uc6lgoSs-8" target="uTukEFcZMju4Uc6lgoSs-1">
          <mxGeometry relative="1" as="geometry" />
        </mxCell>
        <mxCell id="uTukEFcZMju4Uc6lgoSs-15" style="edgeStyle=orthogonalEdgeStyle;rounded=0;orthogonalLoop=1;jettySize=auto;html=1;entryX=0.838;entryY=0.95;entryDx=0;entryDy=0;entryPerimeter=0;startArrow=block;startFill=1;endArrow=none;" edge="1" parent="1" source="uTukEFcZMju4Uc6lgoSs-2" target="uTukEFcZMju4Uc6lgoSs-1">
          <mxGeometry relative="1" as="geometry" />
        </mxCell>
        <mxCell id="uTukEFcZMju4Uc6lgoSs-16" style="rounded=0;orthogonalLoop=1;jettySize=auto;html=1;entryX=0.344;entryY=0.043;entryDx=0;entryDy=0;entryPerimeter=0;endArrow=block;endFill=1;" edge="1" parent="1" source="uTukEFcZMju4Uc6lgoSs-3" target="uTukEFcZMju4Uc6lgoSs-5">
          <mxGeometry relative="1" as="geometry" />
        </mxCell>
        <mxCell id="uTukEFcZMju4Uc6lgoSs-17" style="rounded=0;orthogonalLoop=1;jettySize=auto;html=1;entryX=0.767;entryY=0.014;entryDx=0;entryDy=0;entryPerimeter=0;endArrow=block;endFill=1;" edge="1" parent="1" source="uTukEFcZMju4Uc6lgoSs-3" target="uTukEFcZMju4Uc6lgoSs-5">
          <mxGeometry relative="1" as="geometry" />
        </mxCell>
        <mxCell id="uTukEFcZMju4Uc6lgoSs-18" value="" style="rounded=0;whiteSpace=wrap;html=1;fillColor=#f0a30a;fontColor=#000000;strokeColor=none;" vertex="1" parent="1">
          <mxGeometry x="310" y="495" width="30" height="20" as="geometry" />
        </mxCell>
        <mxCell id="uTukEFcZMju4Uc6lgoSs-25" style="rounded=0;orthogonalLoop=1;jettySize=auto;html=1;exitX=1;exitY=1;exitDx=0;exitDy=0;entryX=0.186;entryY=-0.05;entryDx=0;entryDy=0;entryPerimeter=0;startArrow=block;startFill=1;endArrow=none;" edge="1" parent="1" source="uTukEFcZMju4Uc6lgoSs-3" target="uTukEFcZMju4Uc6lgoSs-4">
          <mxGeometry relative="1" as="geometry" />
        </mxCell>
        <mxCell id="uTukEFcZMju4Uc6lgoSs-26" style="rounded=0;orthogonalLoop=1;jettySize=auto;html=1;entryX=0.317;entryY=0.925;entryDx=0;entryDy=0;entryPerimeter=0;endArrow=block;endFill=1;" edge="1" parent="1" source="uTukEFcZMju4Uc6lgoSs-4" target="uTukEFcZMju4Uc6lgoSs-2">
          <mxGeometry relative="1" as="geometry" />
        </mxCell>
        <mxCell id="uTukEFcZMju4Uc6lgoSs-27" style="rounded=0;orthogonalLoop=1;jettySize=auto;html=1;exitX=0.75;exitY=0;exitDx=0;exitDy=0;entryX=0.675;entryY=0.913;entryDx=0;entryDy=0;entryPerimeter=0;endArrow=none;endFill=1;startArrow=block;startFill=1;" edge="1" parent="1" source="uTukEFcZMju4Uc6lgoSs-4" target="uTukEFcZMju4Uc6lgoSs-2">
          <mxGeometry relative="1" as="geometry" />
        </mxCell>
        <mxCell id="uTukEFcZMju4Uc6lgoSs-24" value="" style="rounded=0;whiteSpace=wrap;html=1;fillColor=#f0a30a;fontColor=#000000;strokeColor=none;" vertex="1" parent="1">
          <mxGeometry x="300" y="380" width="30" height="20" as="geometry" />
        </mxCell>
        <mxCell id="uTukEFcZMju4Uc6lgoSs-23" value="" style="rounded=0;whiteSpace=wrap;html=1;fillColor=#f0a30a;fontColor=#000000;strokeColor=none;" vertex="1" parent="1">
          <mxGeometry x="384" y="380" width="30" height="20" as="geometry" />
        </mxCell>
        <mxCell id="uTukEFcZMju4Uc6lgoSs-22" value="" style="rounded=0;whiteSpace=wrap;html=1;fillColor=#f0a30a;fontColor=#000000;strokeColor=none;" vertex="1" parent="1">
          <mxGeometry x="425" y="350" width="30" height="20" as="geometry" />
        </mxCell>
        <mxCell id="uTukEFcZMju4Uc6lgoSs-29" value="&lt;b&gt;&lt;font style=&quot;font-size: 19px;&quot;&gt;①&lt;/font&gt;&lt;/b&gt;" style="text;html=1;align=center;verticalAlign=middle;whiteSpace=wrap;rounded=0;fontColor=#3333FF;" vertex="1" parent="1">
          <mxGeometry x="170" y="130" width="30" height="30" as="geometry" />
        </mxCell>
        <mxCell id="uTukEFcZMju4Uc6lgoSs-30" value="&lt;b&gt;&lt;font style=&quot;font-size: 19px;&quot;&gt;②&lt;/font&gt;&lt;/b&gt;" style="text;html=1;align=center;verticalAlign=middle;whiteSpace=wrap;rounded=0;fontColor=#3333FF;" vertex="1" parent="1">
          <mxGeometry x="170" y="210" width="30" height="30" as="geometry" />
        </mxCell>
        <mxCell id="uTukEFcZMju4Uc6lgoSs-31" value="&lt;b&gt;&lt;font style=&quot;font-size: 19px;&quot;&gt;⑥&lt;/font&gt;&lt;/b&gt;" style="text;html=1;align=center;verticalAlign=middle;whiteSpace=wrap;rounded=0;fontColor=#3333FF;" vertex="1" parent="1">
          <mxGeometry x="405" y="130" width="30" height="30" as="geometry" />
        </mxCell>
        <mxCell id="uTukEFcZMju4Uc6lgoSs-32" value="&lt;b&gt;&lt;font style=&quot;font-size: 19px;&quot;&gt;④&lt;/font&gt;&lt;/b&gt;" style="text;html=1;align=center;verticalAlign=middle;whiteSpace=wrap;rounded=0;fontColor=#3333FF;" vertex="1" parent="1">
          <mxGeometry x="310" y="480" width="30" height="30" as="geometry" />
        </mxCell>
        <mxCell id="uTukEFcZMju4Uc6lgoSs-33" value="&lt;b&gt;&lt;font style=&quot;font-size: 19px;&quot;&gt;③&lt;/font&gt;&lt;/b&gt;" style="text;html=1;align=center;verticalAlign=middle;whiteSpace=wrap;rounded=0;fontColor=#3333FF;" vertex="1" parent="1">
          <mxGeometry x="173" y="360" width="30" height="30" as="geometry" />
        </mxCell>
        <mxCell id="uTukEFcZMju4Uc6lgoSs-34" value="&lt;b&gt;&lt;font style=&quot;font-size: 19px;&quot;&gt;⑤&lt;/font&gt;&lt;/b&gt;" style="text;html=1;align=center;verticalAlign=middle;whiteSpace=wrap;rounded=0;fontColor=#3333FF;" vertex="1" parent="1">
          <mxGeometry x="370" y="375" width="30" height="30" as="geometry" />
        </mxCell>
        <mxCell id="uTukEFcZMju4Uc6lgoSs-35" value="&lt;b&gt;&lt;font style=&quot;font-size: 19px;&quot;&gt;⑨&lt;/font&gt;&lt;/b&gt;" style="text;html=1;align=center;verticalAlign=middle;whiteSpace=wrap;rounded=0;fontColor=#3333FF;" vertex="1" parent="1">
          <mxGeometry x="310" y="370" width="30" height="30" as="geometry" />
        </mxCell>
        <mxCell id="uTukEFcZMju4Uc6lgoSs-36" value="&lt;b&gt;&lt;font style=&quot;font-size: 19px;&quot;&gt;⑦&lt;/font&gt;&lt;/b&gt;" style="text;html=1;align=center;verticalAlign=middle;whiteSpace=wrap;rounded=0;fontColor=#3333FF;" vertex="1" parent="1">
          <mxGeometry x="390" y="210" width="30" height="30" as="geometry" />
        </mxCell>
        <mxCell id="uTukEFcZMju4Uc6lgoSs-37" value="&lt;b&gt;&lt;font style=&quot;font-size: 19px;&quot;&gt;⑩&lt;/font&gt;&lt;/b&gt;" style="text;html=1;align=center;verticalAlign=middle;whiteSpace=wrap;rounded=0;fontColor=#3333FF;" vertex="1" parent="1">
          <mxGeometry x="220" y="360" width="30" height="30" as="geometry" />
        </mxCell>
        <mxCell id="uTukEFcZMju4Uc6lgoSs-38" value="&lt;b&gt;&lt;font style=&quot;font-size: 19px;&quot;&gt;⑧&lt;/font&gt;&lt;/b&gt;" style="text;html=1;align=center;verticalAlign=middle;whiteSpace=wrap;rounded=0;fontColor=#3333FF;" vertex="1" parent="1">
          <mxGeometry x="440" y="345" width="30" height="30" as="geometry" />
        </mxCell>
      </root>
    </mxGraphModel>
  </diagram>
</mxfile>
